HIERARCHY
ROOT RootJoint
{
    OFFSET   0.000000   0.000000   0.000000
    CHANNELS 6 Xposition Yposition Zposition Xrotation Yrotation Zrotation
    JOINT pelvis_lowerback
    {
        OFFSET   0.000000   0.093605   0.000000
        CHANNELS 3 Xrotation Yrotation Zrotation
        JOINT lowerback_torso
        {
            OFFSET   0.000000   0.100000   0.000000
            CHANNELS 3 Xrotation Yrotation Zrotation
            JOINT torso_head
            {
                OFFSET   0.000000   0.282350   0.000000
                CHANNELS 3 Xrotation Yrotation Zrotation
                End Site
                {
                    OFFSET   0.000000   0.192650   0.000000
                }
            }
            JOINT rTorso_Clavicle
            {
                OFFSET  -0.001000   0.157500   0.000000
                CHANNELS 3 Xrotation Yrotation Zrotation
                JOINT rShoulder
                {
                    OFFSET  -0.117647   0.000000   0.000000
                    CHANNELS 3 Xrotation Yrotation Zrotation
                    JOINT rElbow
                    {
                        OFFSET  -0.245000   0.000000   0.000000
                        CHANNELS 3 Xrotation Yrotation Zrotation
                        JOINT rWrist
                        {
                            OFFSET  -0.240000   0.000000   0.000000
                            CHANNELS 3 Xrotation Yrotation Zrotation
                            End Site
                            {
                                OFFSET  -0.116353  -0.002500   0.000000
                            }
                        }
                    }
                }
            }
            JOINT lTorso_Clavicle
            {
                OFFSET   0.001000   0.157500   0.000000
                CHANNELS 3 Xrotation Yrotation Zrotation
                JOINT lShoulder
                {
                    OFFSET   0.117647   0.000000   0.000000
                    CHANNELS 3 Xrotation Yrotation Zrotation
                    JOINT lElbow
                    {
                        OFFSET   0.245000   0.000000   0.000000
                        CHANNELS 3 Xrotation Yrotation Zrotation
                        JOINT lWrist
                        {
                            OFFSET   0.240000   0.000000   0.000000
                            CHANNELS 3 Xrotation Yrotation Zrotation
                            End Site
                            {
                                OFFSET   0.116353  -0.002500   0.000000
                            }
                        }
                    }
                }
            }
        }
    }
    JOINT rHip
    {
        OFFSET  -0.100000  -0.051395   0.000000
        CHANNELS 3 Xrotation Yrotation Zrotation
        JOINT rKnee
        {
            OFFSET   0.000000  -0.410000   0.000000
            CHANNELS 3 Xrotation Yrotation Zrotation
            JOINT rAnkle
            {
                OFFSET   0.000000  -0.390000   0.000000
                CHANNELS 3 Xrotation Yrotation Zrotation
                JOINT rToeJoint
                {
                    OFFSET   0.000000  -0.050000   0.130000
                    CHANNELS 3 Xrotation Yrotation Zrotation
                    End Site
                    {
                        OFFSET  -0.010000   0.002000   0.060000
                    }
                }
            }
        }
    }
    JOINT lHip
    {
        OFFSET   0.100000  -0.051395   0.000000
        CHANNELS 3 Xrotation Yrotation Zrotation
        JOINT lKnee
        {
            OFFSET   0.000000  -0.410000   0.000000
            CHANNELS 3 Xrotation Yrotation Zrotation
            JOINT lAnkle
            {
                OFFSET   0.000000  -0.390000   0.000000
                CHANNELS 3 Xrotation Yrotation Zrotation
                JOINT lToeJoint
                {
                    OFFSET   0.000000  -0.050000   0.130000
                    CHANNELS 3 Xrotation Yrotation Zrotation
                    End Site
                    {
                        OFFSET   0.010000   0.002000   0.060000
                    }
                }
            }
        }
    }
}
MOTION
Frames: 10
Frame Time:   0.008333
 -2.376719   0.925631   3.975860   0.000000   0.000000   0.000000   0.000000   0.000000   0.000000   0.000000   0.000000   0.000000   0.000000   0.000000   0.000000   0.000000   0.000000   0.000000   0.000000   0.000000   0.000000   0.000000   0.000000   0.000000   0.000000   0.000000   0.000000   0.000000   0.000000   0.000000   0.000000   0.000000   0.000000   0.000000   0.000000   0.000000   0.000000   0.000000   0.000000   0.000000   0.000000   0.000000   0.000000   0.000000   0.000000   0.000000   0.000000   0.000000   0.000000   0.000000   0.000000   0.000000   0.000000   0.000000   0.000000   0.000000   0.000000   0.000000   0.000000   0.000000   0.000000   0.000000   0.000000
 -2.377307   0.926278   3.974806  -0.895937   0.051505  -0.394707   1.284597   0.147944   0.214370   0.036574  -0.367908   0.215558  -0.222081  -0.075914   0.149474  -0.006793  -0.115888   0.604714   0.455396   0.875504   1.820857   0.016810   0.778995  -0.006073   0.282999  -1.105002  -3.090200   0.164087   0.081358  -0.468848   1.244442   0.017735  -1.972731   0.008275  -0.392967   0.006323   0.369083   0.304079   2.761476   0.458226  -0.241329   0.667456   2.049136  -0.004944  -0.003344  -2.371458  -0.504687  -0.602153  -0.013050  -0.000038   0.000080  -0.331086  -0.206721   0.388000   3.119160   0.000016  -0.004166  -0.155594   0.248505   0.103346   0.092887  -0.000083   0.000076
 -2.378084   0.927765   3.973480  -1.942467   0.046460  -0.744761   2.613636   0.351814   0.338280   0.249672  -0.673347   0.448438  -0.394997  -0.158756   0.305658  -0.013740  -0.030243   1.995381   0.857440   1.934765   4.262953   0.040997   1.591118  -0.011495   0.565736  -1.810269  -5.462681   0.332989   0.046482  -1.661724   2.472168  -0.092388  -4.530714   0.019722  -0.790770   0.011731   0.784455   0.475268   4.811780   1.156998  -0.466631   1.428807   4.284586  -0.012370  -0.006712  -4.592503  -0.957594  -1.182270  -0.126944  -0.000198   0.000766  -0.810429  -0.410614   0.784776   6.053049  -0.001975  -0.008330  -0.726056   0.490578   0.183405  -1.755864   0.002352  -0.000591
 -2.378875   0.929463   3.972266  -2.977782  -0.043423  -1.064085   3.852143   0.613983   0.444432   0.488619  -0.891817   0.666426  -0.543338  -0.237088   0.445965  -0.028286   0.186131   3.822937   1.189900   3.111865   7.100098   0.065998   2.392044  -0.015155   0.846281  -2.208990  -6.942847   0.483019  -0.061842  -3.287998   3.671345  -0.319013  -7.472039   0.031604  -1.184193   0.015746   1.199880   0.497955   6.016817   1.999154  -0.657072   2.254254   6.458840  -0.020305  -0.009679  -6.666731  -1.357018  -1.737594  -0.231965  -0.000206   0.001263  -1.336776  -0.552458   1.131382   9.100798  -0.003770  -0.012115  -1.026932   0.774700   0.266292  -3.663549   0.004538  -0.001407
 -2.379645   0.930968   3.971186  -3.940737  -0.191672  -1.346974   4.983969   0.913592   0.532855   0.698025  -1.041279   0.868506  -0.685617  -0.310409   0.573851  -0.053899   0.478500   5.880489   1.444419   4.368998  10.196982   0.088389   3.166328  -0.017301   1.128815  -2.406420  -7.764099   0.608093  -0.208200  -5.152256   4.839428  -0.645337 -10.664453   0.042322  -1.566454   0.018499   1.612081   0.407506   6.602568   2.914284  -0.815422   3.113956   8.533993  -0.027879  -0.011721  -8.605805  -1.709718  -2.268275  -0.333541  -0.000126   0.001625  -1.904915  -0.687979   1.425499  11.981605  -0.005419  -0.015858  -1.225723   1.047532   0.360947  -4.662635   0.005197  -0.001031
 -2.380354   0.931998   3.970235  -4.823811  -0.402819  -1.595774   6.020482   1.246415   0.609923   0.872560  -1.129718   1.055159  -0.824914  -0.378762   0.691277  -0.092371   0.813021   8.034169   1.615525   5.681013  13.465326   0.106609   3.905986  -0.018357   1.411197  -2.477492  -8.145186   0.707961  -0.365843  -7.127924   5.974456  -1.055795 -14.020839   0.051033  -1.932104   0.020219   2.016058   0.247101   6.774932   3.875386  -0.941493   3.989462  10.506941  -0.034667  -0.013095 -10.418456  -2.020978  -2.773865  -0.431195   0.000001   0.001884  -2.516742  -0.840061   1.643993  14.657101  -0.006515  -0.020153  -1.361208   1.277729   0.449466  -5.080688   0.004717  -0.000333
 -2.380952   0.932359   3.969406  -5.629790  -0.654885  -1.813764   6.973915   1.603905   0.682874   1.017818  -1.164261   1.244350  -0.960671  -0.443212   0.795662  -0.143649   1.179501  10.255769   1.694940   6.961811  16.692176   0.119975   4.612473  -0.018585   1.693396  -2.443657  -8.160643   0.783562  -0.525252  -9.139214   7.073893  -1.544530 -17.487022   0.057542  -2.279957   0.021141   2.408421   0.041513   6.677009   4.870980  -1.037925   4.867475  12.379450  -0.040381  -0.013666 -12.112552  -2.295965  -3.254655  -0.523908   0.000146   0.002041  -3.170107  -0.995460   1.787554  17.136411  -0.007089  -0.024023  -1.471768   1.483162   0.532196  -5.298275   0.004008   0.000124
 -2.381066   0.931147   3.967551  -5.836961  -0.701420  -1.646286   7.377251   1.903233   0.486673   1.275852  -1.157464   1.311014  -1.407603  -0.490265   0.718060  -0.054417   1.843092  11.783767   1.859459   8.019924  19.792911   0.126726   5.332252  -0.023034   1.899400  -2.469433  -7.024339   0.898823  -0.855184 -10.420027   8.111435  -2.315793 -20.760836   0.068532  -2.829287   0.025563   2.619790  -0.145616   5.409040   5.624413  -1.282652   5.275940  13.018507  -0.035938  -0.011655 -13.125962  -2.510299  -3.584812  -0.291145  -0.000351   0.000558  -4.958261  -1.139114   1.423868  20.074854  -0.004201  -0.023878  -2.182079   1.723543   0.746594  -4.761786   0.002669   0.000248
 -2.381026   0.928628   3.965248  -5.971680  -0.798513  -1.405299   7.838811   2.272428   0.270712   1.517590  -1.084613   1.318083  -1.844088  -0.527518   0.620815  -0.037443   2.598856  12.984507   1.937605   9.102884  22.541598   0.127502   6.032619  -0.027460   2.125788  -2.396405  -5.981982   0.959472  -1.260663 -11.398194   9.017324  -3.152071 -23.653463   0.074169  -3.375006   0.028730   2.842128  -0.500650   4.263742   6.382719  -1.490030   5.570801  13.445624  -0.031034  -0.009902 -14.075757  -2.704463  -3.897441  -0.041459  -0.000743  -0.000699  -6.916664  -1.234968   0.953470  22.776706  -0.001689  -0.024493  -2.851008   1.945288   0.949160  -4.300755   0.001848   0.000130
 -2.380940   0.924937   3.962804  -6.078606  -0.928906  -1.154351   8.331372   2.677224   0.063683   1.761963  -0.959094   1.309200  -2.240948  -0.559839   0.526918  -0.089549   3.394729  13.948654   1.937288  10.184659  24.997763   0.124597   6.714205  -0.031215   2.367319  -2.200168  -5.209117   0.985485  -1.680226 -12.168615   9.813508  -3.994315 -26.236367   0.075641  -3.896572   0.030377   3.059473  -0.914071   3.379705   7.163877  -1.672558   5.832986  13.822952  -0.026777  -0.008500 -14.964277  -2.881495  -4.192667   0.189395  -0.001008  -0.001601  -8.926525  -1.306254   0.468351  25.230046  -0.000190  -0.025452  -3.478922   2.148859   1.140693  -3.884460   0.001267  -0.000144
